<?xml version="1.0" encoding="iso-8859-1"?>
<!-- Uploaded to: SVG Repo, www.svgrepo.com, Generator: SVG Repo Mixer Tools -->
<svg height="800px" width="800px" version="1.1" id="Layer_1" xmlns="http://www.w3.org/2000/svg" xmlns:xlink="http://www.w3.org/1999/xlink" 
	 viewBox="0 0 512 512" xml:space="preserve">
<path style="fill:#696B6F;" d="M83.478,289.391H50.087C22.468,289.391,0,266.923,0,239.304v-66.783
	c0-27.619,22.468-50.087,50.087-50.087h33.391c9.217,0,16.696,7.473,16.696,16.696v133.565
	C100.174,281.918,92.695,289.391,83.478,289.391z"/>
<path style="fill:#FFA733;" d="M233.739,222.609H83.478c-9.22,0-16.696-7.475-16.696-16.696V139.13
	c0-27.662,22.424-50.087,50.087-50.087h116.87V222.609z"/>
<path style="fill:#696B6F;" d="M100.174,189.217h100.174v-66.783H116.87c-9.206,0-16.696,7.49-16.696,16.696V189.217z"/>
<path style="fill:#FFA733;" d="M377.543,200.682l-25.71-77.357c-6.901-20.48-26.045-34.282-47.526-34.282H200.348v133.565h161.391
	c5.343,0,10.35-2.56,13.579-6.901C378.435,211.367,379.326,205.69,377.543,200.682z"/>
<path style="fill:#E58613;" d="M375.318,215.708c-3.228,4.341-8.237,6.901-13.579,6.901h-89.043V89.043h31.612
	c21.481,0,40.625,13.802,47.526,34.282l25.71,77.357C379.326,205.69,378.435,211.367,375.318,215.708z"/>
<path style="fill:#696B6F;" d="M320.111,133.899c-2.226-6.901-8.682-11.464-15.804-11.464h-70.568v66.783h104.848L320.111,133.899z"
	/>
<path style="fill:#616267;" d="M338.587,189.217h-65.891v-66.783h31.612c7.122,0,13.579,4.563,15.804,11.464L338.587,189.217z"/>
<path style="fill:#FF5F4A;" d="M478.609,356.174H66.783V189.217h361.739c27.662,0,50.087,22.424,50.087,50.087V356.174z"/>
<path style="fill:#D8482B;" d="M428.522,189.217H272.696v166.957h205.913v-116.87C478.609,211.642,456.185,189.217,428.522,189.217z
	"/>
<path style="fill:#A3A5AE;" d="M495.304,356.174H50.087c-9.217,0-16.696-7.473-16.696-16.696s7.479-16.696,16.696-16.696h445.217
	c9.217,0,16.696,7.473,16.696,16.696S504.521,356.174,495.304,356.174z"/>
<path style="fill:#957856;" d="M289.391,289.391H256c-9.217,0-16.696-7.473-16.696-16.696c0-9.223,7.479-16.696,16.696-16.696
	h33.391c9.217,0,16.696,7.473,16.696,16.696C306.087,281.918,298.608,289.391,289.391,289.391z"/>
<path style="fill:#696B6F;" d="M166.957,422.957c-36.826,0-66.783-29.956-66.783-66.783s29.956-66.783,66.783-66.783
	s66.783,29.956,66.783,66.783S203.783,422.957,166.957,422.957z"/>
<path style="fill:#616267;" d="M233.739,356.174c0-36.826-29.956-66.783-66.783-66.783v133.565
	C203.783,422.957,233.739,393,233.739,356.174z"/>
<path style="fill:#E7ECFD;" d="M166.957,322.783c-18.413,0-33.391,14.978-33.391,33.391c0,18.413,14.978,33.391,33.391,33.391
	s33.391-14.978,33.391-33.391C200.348,337.761,185.37,322.783,166.957,322.783z"/>
<path style="fill:#DAE0F0;" d="M200.348,356.174c0-18.413-14.978-33.391-33.391-33.391v66.783
	C185.37,389.565,200.348,374.587,200.348,356.174z"/>
<path style="fill:#999CA4;" d="M495.304,322.783H272.696v33.391h222.609c9.217,0,16.696-7.473,16.696-16.696
	S504.521,322.783,495.304,322.783z"/>
<path style="fill:#696B6F;" d="M378.435,422.957c-36.826,0-66.783-29.956-66.783-66.783s29.956-66.783,66.783-66.783
	s66.783,29.956,66.783,66.783S415.261,422.957,378.435,422.957z"/>
<path style="fill:#616267;" d="M445.217,356.174c0-36.826-29.956-66.783-66.783-66.783v133.565
	C415.261,422.957,445.217,393,445.217,356.174z"/>
<path style="fill:#E7ECFD;" d="M378.435,322.783c-18.413,0-33.391,14.978-33.391,33.391c0,18.413,14.978,33.391,33.391,33.391
	c18.413,0,33.391-14.978,33.391-33.391C411.826,337.761,396.848,322.783,378.435,322.783z"/>
<path style="fill:#DAE0F0;" d="M411.826,356.174c0-18.413-14.978-33.391-33.391-33.391v66.783
	C396.848,389.565,411.826,374.587,411.826,356.174z"/>
<path style="fill:#816952;" d="M289.391,256h-16.696v33.391h16.696c9.217,0,16.696-7.473,16.696-16.696
	C306.087,263.473,298.608,256,289.391,256z"/>
</svg>